<svg width="19" height="19" fill="transparent" xmlns="http://www.w3.org/2000/svg"><path d="M2.99 3.628h.228c.564 0 1.061.364 1.223.895l.436 1.489 1.903 5.74 6.275-.611a1.9 1.9 0 001.467-1.338l.989-3.791M10.085 3.21v4.173M7.998 5.297h4.173" stroke="#fff" stroke-width="1.5" stroke-linecap="square"></path><path d="M5.297 15.974a.928.928 0 10.001-1.855.928.928 0 000 1.855zM13.646 15.974a.928.928 0 100-1.855.928.928 0 000 1.855z" fill="#fff"></path><path d="M5.297 15.974a.928.928 0 10.001-1.855.928.928 0 000 1.855zM13.646 15.974a.928.928 0 100-1.855.928.928 0 000 1.855z" stroke="#fff" stroke-width="2" stroke-linecap="square"></path></svg>