<svg width="24" height="15" viewBox="0 0 24 15" fill="none" xmlns="http://www.w3.org/2000/svg">
<path d="M7.33564 10.2129L2.82743 1.21074H0V0H3.58236L4.27319 1.38879L23.0895 1.38166L19.8988 9.22296L7.33564 10.2129ZM4.87856 2.59952L8.05496 8.9452L19.0584 8.0692L21.2876 2.58528L4.87856 2.59952Z" fill="#4D7EEE"/>
<path d="M7.69169 14.0303C6.29579 14.0303 5.16339 12.8979 5.16339 11.502C5.16339 10.1061 6.29579 8.97369 7.69169 8.97369C9.0876 8.97369 10.22 10.1061 10.22 11.502C10.22 12.8979 9.0876 14.0303 7.69169 14.0303ZM7.69169 10.1844C6.96525 10.1844 6.37413 10.7756 6.37413 11.502C6.37413 12.2284 6.96525 12.8196 7.69169 12.8196C8.41814 12.8196 9.00926 12.2284 9.00926 11.502C9.00926 10.7756 8.41814 10.1844 7.69169 10.1844Z" fill="#4D7EEE"/>
<path d="M18.9637 14.0303C17.5678 14.0303 16.4354 12.8979 16.4354 11.502C16.4354 10.1061 17.5678 8.97369 18.9637 8.97369C20.3596 8.97369 21.492 10.1061 21.492 11.502C21.492 12.8979 20.3525 14.0303 18.9637 14.0303ZM18.9637 10.1844C18.2373 10.1844 17.6462 10.7756 17.6462 11.502C17.6462 12.2284 18.2373 12.8196 18.9637 12.8196C19.6902 12.8196 20.2813 12.2284 20.2813 11.502C20.2813 10.7756 19.6902 10.1844 18.9637 10.1844Z" fill="#4D7EEE"/>
</svg>
