<?xml version="1.0" encoding="UTF-8"?>
<!DOCTYPE svg PUBLIC "-//W3C//DTD SVG 1.1//EN" "http://www.w3.org/Graphics/SVG/1.1/DTD/svg11.dtd">
<!-- Creator: CorelDRAW 2020 (64-Bit) -->
<svg xmlns="http://www.w3.org/2000/svg" xml:space="preserve" width="61.4406mm" height="61.338mm"
     version="1.1"
     style="shape-rendering:geometricPrecision; text-rendering:geometricPrecision; image-rendering:optimizeQuality; fill-rule:evenodd; clip-rule:evenodd"
     viewBox="0 0 10193.3 10176.28"
>
 <defs>
  <style type="text/css">
   <![CDATA[
    .fil0 {fill:#FD5000}
    .fil1 {fill:#FEFEFE;fill-rule:nonzero}
   ]]>
  </style>
 </defs>
 <g id="Слой_x0020_1">
  <metadata id="CorelCorpID_0Corel-Layer"/>
  <g id="_2208428647424">
   <path class="fil0" d="M-0 1366.58l0 7382.97 0 146.11c74.67,721.95 672.08,1280.62 1418.85,1280.62l7318.27 0c821.43,0 1456.18,-670.39 1456.18,-1581.44l0 -6910.26c0,-1082.94 -597.41,-1684.58 -1642.87,-1684.58l-6870.21 0c-896.12,0 -1605.55,498.49 -1680.22,1220.46l0 146.11z"/>
   <path class="fil1" d="M4641.34 7256.97c0,344.58 -194.76,659.87 -503.49,814.08l-1317.44 658.91 0 -1941.02c0,-344.67 194.56,-660.32 503.51,-814.46l1317.42 -658.43 0 1940.92zm2731.53 -1365.91c0,344.8 -195.1,659.9 -503.46,814.66l-1317.52 658.48 0 -4444.83c0,-344.57 194.59,-659.85 503.02,-814.43l1317.95 -658.54 0 4444.66z"/>
  </g>
 </g>
</svg>
