<svg width="100" height="101" fill="none" xmlns="http://www.w3.org/2000/svg"><path d="M6.875 13.633h1.428c3.53 0 6.641 2.276 7.65 5.597l2.73 9.311 11.902 35.901 39.241-3.82c4.422-.872 7.969-4.108 9.177-8.37l6.184-23.71M60.487 14.846L42.029 33.304m0-18.458l18.458 18.458" stroke="#BEBEB6" stroke-opacity="0.2" stroke-width="8" stroke-linecap="square"></path><path d="M25.468 95.681c5.518 0 9.991-4.469 9.991-9.981 0-5.513-4.473-9.982-9.991-9.982s-9.991 4.469-9.991 9.982c0 5.512 4.473 9.981 9.99 9.981zM76.492 95.681c5.518 0 9.99-4.469 9.99-9.981 0-5.513-4.472-9.982-9.99-9.982S66.5 80.187 66.5 85.7c0 5.512 4.474 9.981 9.992 9.981z" fill="#BEBEB6" fill-opacity="0.2"></path></svg>