<svg width="29" height="28" fill="none" xmlns="http://www.w3.org/2000/svg"><circle cx="14.234" cy="14" r="13.25" stroke="#F6F6F5" stroke-width="1.5"></circle><path d="M11.522 16.691a16.37 16.37 0 001.968 1.68c.69.5 1.38.897 2.071 1.19.69.293 1.344.439 1.961.439.419 0 .81-.075 1.172-.226.362-.151.69-.388.984-.711a2.34 2.34 0 00.407-.614c.1-.215.15-.433.15-.653 0-.163-.033-.318-.098-.465a.909.909 0 00-.33-.387l-1.987-1.41a2.207 2.207 0 00-.42-.232.995.995 0 00-.37-.077c-.146 0-.289.04-.427.122-.138.078-.28.19-.427.336l-.46.453a.323.323 0 01-.245.103.43.43 0 01-.15-.026 4.886 4.886 0 01-.11-.045c-.202-.108-.461-.293-.776-.556a15.95 15.95 0 01-1.825-1.829c-.268-.314-.453-.57-.557-.768a1.525 1.525 0 01-.052-.117.535.535 0 01-.02-.142c0-.095.033-.174.098-.239l.46-.472c.142-.146.254-.288.336-.426a.824.824 0 00.123-.427.926.926 0 00-.084-.368 2.045 2.045 0 00-.24-.42l-1.391-1.958a.99.99 0 00-.401-.336A1.14 1.14 0 0010.39 8c-.445 0-.861.187-1.25.562a2.853 2.853 0 00-.692 1.002c-.142.362-.214.75-.214 1.163 0 .62.145 1.273.434 1.958.29.68.682 1.364 1.178 2.048a16.165 16.165 0 001.676 1.958z" fill="#AAADB3" fill-opacity="0.4"></path></svg>