<svg width="28" height="28" fill="none" xmlns="http://www.w3.org/2000/svg"><mask id="whatsappFooter_svg__a" fill="#fff"><path d="M14.234 27c7.18 0 13-5.82 13-13s-5.82-13-13-13-13 5.82-13 13c0 3.356 1.272 6.415 3.36 8.722L3.734 28l5.818-1.869a12.97 12.97 0 004.682.869z"></path></mask><path d="M4.594 22.722l1.974.321.155-.95-.646-.714-1.483 1.343zM3.734 28l-1.974-.322-.525 3.226 3.111-1L3.734 28zm5.818-1.869l.72-1.866-.66-.254-.672.216.612 1.904zM25.234 14c0 6.075-4.925 11-11 11v4c8.285 0 15-6.716 15-15h-4zm-11-11c6.075 0 11 4.925 11 11h4c0-8.284-6.715-15-15-15v4zm0-4c-8.284 0-15 6.716-15 15h4c0-6.075 4.925-11 11-11v-4zM2.62 22.4l-.86 5.279 3.948.643.86-5.279L2.62 22.4zm1.726 7.504l5.817-1.869-1.223-3.808-5.817 1.869 1.223 3.808zM14.234 25c-1.4 0-2.735-.26-3.962-.735l-1.441 3.732A14.969 14.969 0 0014.234 29v-4zm-8.157-3.62A10.952 10.952 0 013.234 14h-4c0 3.871 1.47 7.404 3.877 10.064l2.966-2.685z" fill="#AAADB3" mask="url(#whatsappFooter_svg__a)"></path><path d="M10.522 16.691a16.37 16.37 0 001.968 1.68c.69.5 1.38.897 2.071 1.19.69.293 1.344.439 1.961.439.419 0 .81-.075 1.172-.226.362-.151.69-.388.984-.711a2.34 2.34 0 00.407-.614c.1-.215.15-.433.15-.653 0-.163-.033-.318-.098-.465a.909.909 0 00-.33-.387l-1.987-1.41a2.207 2.207 0 00-.42-.232.995.995 0 00-.37-.077c-.146 0-.289.04-.427.122-.138.078-.28.19-.427.336l-.46.453a.323.323 0 01-.245.103.43.43 0 01-.15-.026 4.886 4.886 0 01-.11-.045c-.202-.108-.461-.293-.776-.556a15.95 15.95 0 01-1.825-1.829c-.268-.314-.453-.57-.557-.768a1.525 1.525 0 01-.052-.117.535.535 0 01-.02-.142c0-.095.033-.174.098-.239l.46-.472c.142-.146.254-.288.336-.426a.824.824 0 00.123-.427.926.926 0 00-.084-.368 2.045 2.045 0 00-.24-.42l-1.391-1.958a.99.99 0 00-.401-.336A1.14 1.14 0 009.39 8c-.445 0-.861.187-1.25.562a2.853 2.853 0 00-.692 1.002c-.142.362-.214.75-.214 1.163 0 .62.145 1.273.434 1.958.29.68.682 1.364 1.178 2.048a16.173 16.173 0 001.676 1.958z" fill="#AAADB3"></path></svg>