<svg width="24" height="24" viewBox="0 0 24 24" fill="none" xmlns="http://www.w3.org/2000/svg">
    <path fill-rule="evenodd" clip-rule="evenodd" d="M19.9141 4.99992C20.3046 5.39045 20.3046 6.02361 19.9141 6.41414L13.8712 12.457L19.9141 18.4999C20.3046 18.8905 20.3046 19.5236 19.9141 19.9141C19.5236 20.3047 18.8904 20.3047 18.4999 19.9141L12.457 13.8712L6.41411 19.9141C6.02359 20.3047 5.39042 20.3047 4.9999 19.9141C4.60937 19.5236 4.60937 18.8904 4.9999 18.4999L11.0428 12.457L4.99989 6.41414C4.60937 6.02362 4.60937 5.39045 4.99989 4.99993C5.39042 4.6094 6.02358 4.6094 6.41411 4.99993L12.457 11.0428L18.4999 4.99992C18.8904 4.6094 19.5236 4.6094 19.9141 4.99992Z" fill="black"/>
</svg>
