<?xml version="1.0" encoding="utf-8"?>
<!-- Generator: Adobe Illustrator 21.1.0, SVG Export Plug-In . SVG Version: 6.00 Build 0)  -->
<svg version="1.1" id="loan-72x72_1_" xmlns="http://www.w3.org/2000/svg" xmlns:xlink="http://www.w3.org/1999/xlink" x="0px"
	 y="0px" viewBox="0 0 72 72" style="enable-background:new 0 0 72 72;" xml:space="preserve">
<style type="text/css">
	.st0{fill:#DAEAFF;}
	.st1{fill:#64A7FF;}
	.st2{fill:none;stroke:#006FFF;stroke-width:3.7565;stroke-linecap:round;}
	.st3{fill:#FFFFFF;}
</style>
<g id="loan-72x72">
	<circle id="Oval-Copy-11" class="st0" cx="36" cy="36" r="36"/>
	<g id="Group-52-Copy-3" transform="translate(17.000000, 17.000000)">
		<g id="Group">
			<path id="Rectangle-Copy-84" class="st1" d="M1.6,15.2L19,0l17.4,15.2v20.3c0,1.4-1.1,2.5-2.5,2.5H4.1c-1.4,0-2.5-1.1-2.5-2.5
				V15.2z"/>
			<path id="Path-18-Copy-2" class="st2" d="M0,15.8L17.4,1.3c0.9-0.8,2.3-0.8,3.2,0L38,15.8"/>
		</g>
		
			<g id="Group-2" transform="translate(19.000000, 24.541667) rotate(-315.000000) translate(-19.000000, -24.541667) translate(11.083333, 15.833333)">
			<path id="Rectangle-Copy-93" class="st3" d="M7.9,0.8L7.9,0.8c0.9,0,1.5,0.7,1.5,1.5l0.1,12.8c0,0.8-0.7,1.5-1.5,1.5c0,0,0,0,0,0
				l0,0c-0.9,0-1.5-0.7-1.5-1.5L6.3,2.3C6.3,1.5,7,0.8,7.9,0.8C7.9,0.8,7.9,0.8,7.9,0.8z"/>
			
				<ellipse id="Oval" transform="matrix(0.7071 -0.7071 0.7071 0.7071 -5.4621 4.23)" class="st3" cx="2.4" cy="8.7" rx="2.4" ry="2.4"/>
			
				<ellipse id="Oval-Copy" transform="matrix(0.7071 -0.7071 0.7071 0.7071 -2.2159 12.0671)" class="st3" cx="13.5" cy="8.7" rx="2.4" ry="2.4"/>
		</g>
	</g>
</g>
</svg>
