<?xml version="1.0" encoding="utf-8"?>
<!-- Generator: Adobe Illustrator 21.1.0, SVG Export Plug-In . SVG Version: 6.00 Build 0)  -->
<svg version="1.1" id="Education-72x72_1_" xmlns="http://www.w3.org/2000/svg" xmlns:xlink="http://www.w3.org/1999/xlink" x="0px"
	 y="0px" viewBox="0 0 72 72" style="enable-background:new 0 0 72 72;" xml:space="preserve">
<style type="text/css">
	.st0{fill:#E8EBF3;}
	.st1{fill:none;stroke:#FF8C00;stroke-width:3.1304;stroke-linecap:round;}
	.st2{fill:#AAB2BD;}
	.st3{fill:#848D9A;}
	.st4{fill:#515A66;}
	.st5{fill:#E35D29;}
</style>
<g id="Education-72x72">
	<circle id="Oval-Copy-21" class="st0" cx="36" cy="36" r="36"/>
	<g id="Group-63-Copy-2" transform="translate(14.000000, 22.000000)">
		<g id="Group-62">
			<g id="Group">
				<polygon id="Path-23-Copy" class="st1" points="41.6,9.3 41.6,19.2 41.6,22.6 				"/>
				<path id="Combined-Shape-Copy" class="st2" d="M6.3,21.8L6.3,21.8l0-14h31.4v14h0c0.1,0.9-0.4,1.8-1.5,2.2l-10.4,3.5
					c-2.5,0.8-5.2,0.8-7.6,0L7.8,23.9C6.7,23.6,6.2,22.7,6.3,21.8z"/>
				<path id="Combined-Shape-Copy_1_" class="st3" d="M6.3,14.8V11l13.8-1.3c1.2-0.4,2.6-0.4,3.8,0L37.7,11v3.8l-11.9,5.4
					c-2.5,0.8-5.2,0.8-7.6,0L6.3,14.8z"/>
				<path id="Path-Copy-29" class="st4" d="M2,12.1c-2.7-1-2.7-4.7,0-5.6l16.5-5.9c2.2-0.8,4.7-0.8,6.9,0L42,6.5
					c2.7,1,2.7,4.7,0,5.6l-16.5,5.9c-2.2,0.8-4.7,0.8-6.9,0L2,12.1z"/>
				<ellipse id="Oval-Copy-77" class="st5" cx="41.6" cy="22.6" rx="2.4" ry="2.3"/>
			</g>
		</g>
	</g>
</g>
</svg>
