<?xml version="1.0" encoding="utf-8"?>
<!-- Generator: Adobe Illustrator 21.1.0, SVG Export Plug-In . SVG Version: 6.00 Build 0)  -->
<svg version="1.1" id="Insurance-72x72_1_" xmlns="http://www.w3.org/2000/svg" xmlns:xlink="http://www.w3.org/1999/xlink" x="0px"
	 y="0px" viewBox="0 0 72 72" style="enable-background:new 0 0 72 72;" xml:space="preserve">
<style type="text/css">
	.st0{fill:#F8F1FF;}
	.st1{fill:#C19FE4;}
	.st2{fill:#865ED3;}
	.st3{fill:#484E59;}
</style>
<g id="Insurance-72x72">
	<circle id="Oval-Copy-9" class="st0" cx="36" cy="36" r="36"/>
	<g id="Group-Copy" transform="translate(19.000000, 16.000000)">
		<ellipse id="Oval" class="st1" cx="17" cy="3.5" rx="3.4" ry="3.5"/>
		<path id="Rectangle" class="st2" d="M17,3.5L17,3.5c9.4,0,17,7.6,17,17v0.4H0v-0.4C0,11.1,7.6,3.5,17,3.5z"/>
		<ellipse id="Oval-Copy" class="st1" cx="17" cy="20.9" rx="17" ry="3.5"/>
		<path id="Path" class="st3" d="M15.3,17.4v16.5c0,1.4-1.1,2.6-2.6,2.6s-2.6-1.2-2.6-2.6v-0.8c0-0.9-0.8-1.7-1.7-1.7l0,0
			c-0.9,0-1.7,0.8-1.7,1.7v0.8c0,3.4,2.7,6.1,5.9,6.1s6-2.7,6-6.1V17.4H15.3z"/>
	</g>
</g>
</svg>
