<svg width="20" height="18" fill="none" xmlns="http://www.w3.org/2000/svg"><path d="M12.352 12.158c0-.242-.207-.443-.466-.453h-.187l1.098-1.35c3.23 0 7.203-.29 7.203-1.317 0-1.007-3.972-1.382-7.203-1.382L11.7 6.286h.186a.471.471 0 0 0 .466-.454v-.443c0-.241-.207-.443-.466-.453H10.58L6.72.212c-.02-.02-.03-.051-.062-.08A.47.47 0 0 0 6.337 0H5.86a.471.471 0 0 0-.467.454c0 .08.032.17.073.231l3.167 6.97a.387.387 0 0 0-.186.04c-.507.253-4.43.404-4.43.404h-.021L1.263 4.717a.456.456 0 0 0-.32-.13H.465A.472.472 0 0 0 0 5.04c0 .08.031.17.072.231l1.366 3.193H1.21a.453.453 0 0 0-.32.775c.085.083.2.13.321.132h.228L.073 12.379a.44.44 0 0 0-.073.232c0 .242.207.443.466.453h.476a.447.447 0 0 0 .321-.15L4.007 9.9h.02s3.925.152 4.432.403c.062.02.124.04.186.04l-3.168 6.972a.44.44 0 0 0-.072.231c0 .242.207.443.465.453h.456c.124 0 .238-.05.32-.13.022-.021.053-.051.063-.081l3.883-4.724h1.283a.473.473 0 0 0 .466-.454l.01-.453z" fill="#fff"/></svg>